<?xml version="1.0" encoding="utf-8"?>
<!-- Generator: Adobe Illustrator 24.1.3, SVG Export Plug-In . SVG Version: 6.00 Build 0)  -->
<svg version="1.1" id="Layer_1" xmlns="http://www.w3.org/2000/svg" xmlns:xlink="http://www.w3.org/1999/xlink" x="0px" y="0px"
	 viewBox="0 0 552 552" style="enable-background:new 0 0 552 552;" xml:space="preserve">
<style type="text/css">
	.st0{fill:#FFFFFF;}
</style>
<path class="st0" d="M76,552h400c32.4,0,58.7-26.3,58.8-58.8V221.8c0-32.4-26.3-58.7-58.8-58.8H76c-32.4,0-58.7,26.3-58.8,58.8
	v271.4C17.2,525.7,43.5,551.9,76,552z M76,534.5c-9,0-17.8-3-25-8.4l119.6-122.4c2.2-2.2,3.1-5.5,2.2-8.5c-0.8-3-3.2-5.4-6.3-6.1
	c-3.1-0.8-6.3,0.1-8.5,2.4L39.6,512.7c-3.2-6-4.9-12.6-4.9-19.4V241.1l203.4,172.2c21.9,18.6,54.1,18.6,76,0l203.1-172.4v252.3
	c0,6.8-1.7,13.5-4.9,19.5L393.1,391.4c-3.4-3.4-8.9-3.4-12.3-0.1c-3.4,3.4-3.5,8.9-0.1,12.3L501,526c-7.2,5.5-15.9,8.4-24.9,8.4H76
	V534.5z M76,180.5h400c21.3,0,39.1,16.3,41.1,37.6L302.7,399.9c-15.4,13.1-38,13.1-53.3,0L34.9,218.3C36.7,197,54.5,180.6,76,180.5z
	"/>
</svg>
