<?xml version="1.0" standalone="no"?>
<!DOCTYPE svg PUBLIC "-//W3C//DTD SVG 20010904//EN"
 "http://www.w3.org/TR/2001/REC-SVG-20010904/DTD/svg10.dtd">
<svg version="1.0" xmlns="http://www.w3.org/2000/svg"
 width="1167.000000pt" height="1167.000000pt" viewBox="0 0 1167.000000 1167.000000"
 preserveAspectRatio="xMidYMid meet">
<metadata>
Created by potrace 1.11, written by Peter Selinger 2001-2013
</metadata>
<g transform="translate(0.000000,1167.000000) scale(0.100000,-0.100000)"
fill="#000000" stroke="none">
<path d="M0 5835 l0 -5835 5835 0 5835 0 0 5835 0 5835 -5835 0 -5835 0 0
-5835z m4128 2308 c5 -16 395 -1053 866 -2307 471 -1253 856 -2280 856 -2282
0 -2 -337 -4 -748 -4 l-749 0 -114 378 -115 377 -811 3 c-767 2 -812 1 -817
-15 -77 -258 -216 -734 -216 -738 0 -3 -328 -5 -730 -5 -401 0 -730 3 -730 8
0 4 390 1043 867 2310 l867 2302 782 0 782 0 10 -27z m5228 -1 c380 -73 654
-242 834 -515 101 -152 152 -301 170 -498 40 -422 -140 -796 -481 -1000 -30
-18 -99 -52 -154 -75 -55 -24 -93 -45 -85 -48 8 -2 62 -19 118 -37 137 -42
320 -134 420 -209 275 -207 415 -538 399 -945 -8 -208 -46 -365 -127 -528
-118 -236 -312 -432 -535 -542 -154 -76 -299 -109 -725 -162 l-215 -27 -1332
-3 -1333 -4 0 2311 0 2311 1468 -4 c1451 -3 1468 -3 1578 -25z"/>
<path d="M3064 6134 l-251 -824 505 0 504 0 -7 28 c-12 50 -487 1597 -494
1609 -3 6 -119 -360 -257 -813z"/>
<path d="M7750 6795 l0 -435 359 0 c382 0 468 7 593 46 168 53 260 194 260
398 0 182 -85 314 -242 376 -102 40 -219 50 -607 50 l-363 0 0 -435z"/>
<path d="M7750 5009 l0 -471 468 5 c439 3 472 5 550 25 170 45 266 113 326
232 91 183 65 392 -66 523 -82 82 -187 124 -368 146 -47 6 -269 11 -497 11
l-413 0 0 -471z"/>
</g>
</svg>
